<svg width="82" height="19" viewBox="0 0 82 19" fill="none" xmlns="http://www.w3.org/2000/svg">
<path d="M49.8401 3.66796C49.8897 3.66796 50.0054 3.46094 50.1624 3.46094C51.2202 3.48578 53.6498 7.31155 54.6745 8.47916C56.6413 10.7233 59.9387 14.5905 62.3765 14.6815C63.5583 14.7312 65.1284 13.7872 64.0128 11.8246C63.6409 11.1704 58.3602 5.3407 57.9223 5.15024C57.0876 4.79416 55.9306 5.27445 55.3439 4.16481C56.4513 4.18138 57.8148 3.61827 58.8561 3.57687C60.2692 3.5189 61.5915 6.20191 62.6823 7.46889C64.0624 9.07538 65.5086 10.5328 66.8639 12.2056C67.5333 13.0336 68.1035 14.4911 68.9629 14.8554C69.6819 15.1618 70.5579 14.5573 70.781 16.0645C70.1282 16.2384 66.5581 18.0105 66.3102 17.3563C66.3102 16.2963 66.1201 15.3026 65.6326 14.5491C65.0375 16.1804 63.7236 16.8346 62.5831 16.9588C58.2198 17.4225 53.1622 8.94289 49.65 5.44007C48.6583 4.37184 47.0551 5.20821 46.3279 3.80045C47.4931 3.78389 48.6749 3.66796 49.8401 3.66796Z" fill="black"/>
<path d="M8.07385 0.662471L10.1398 0.0165618L12.0819 0L17.9658 4.27294C21.2962 2.26896 25.9158 3.57734 29.0644 5.9788C30.1965 6.84002 33.4773 10.0696 33.7335 11.9659C34.1137 14.8311 30.337 14.6158 29.1966 14.5081C27.9818 14.3922 26.5439 13.4564 25.3869 13.4896C24.5936 13.5144 24.5853 14.4336 23.511 13.7214C19.6269 9.96191 15.8007 3.05565 11.2885 1.31666C10.2308 0.910898 9.13164 1.04339 8.07385 0.662471ZM30.8825 12.9762C31.056 11.6429 30.6015 10.9805 30.0726 10.1607C28.0066 6.96423 23.23 3.32892 20.3211 4.29778C19.693 4.50481 19.2302 4.86088 19.5691 5.9788C19.66 6.26863 22.3705 9.55615 22.7755 9.99504C25.0729 12.4627 28.0975 14.417 30.8825 12.9762Z" fill="black"/>
<path d="M34.7335 3.45331C39.0556 2.34367 45.9973 5.53181 49.3525 9.99521C52.7821 14.5497 48.7493 15.767 46.1544 15.5765C43.4025 15.3778 34.6592 10.7156 33.2047 6.98925C32.2957 4.64576 33.3204 3.81767 34.7253 3.46159L34.7335 3.45331ZM36.3615 4.23999C36.1301 4.35593 35.7087 5.0184 35.7335 5.44072C36.5599 8.38872 38.5763 10.1608 40.3283 11.5437C41.5348 12.496 46.7907 16.239 47.5923 13.5146C47.741 13.1171 47.6749 12.761 47.5923 12.3553C47.0138 9.5232 41.8654 5.43244 40.0638 4.68716C39.0721 4.2814 37.3284 3.74314 36.3615 4.23171V4.23999Z" fill="black"/>
<path d="M74.4667 5.58953L69.5992 5.49844C71.219 7.96615 73.2106 9.68029 74.9708 11.8996C76.4418 13.7545 78.3012 18.2841 80.5077 15.5514C80.9044 15.0546 80.7804 14.0278 81.582 14.6571C83.0199 15.7833 80.3672 18.6154 79.3507 18.8804C75.8799 19.7913 74.7642 15.2947 72.6321 12.2722C71.3099 10.4007 69.4753 8.74455 68.0043 7.11322C67.6407 6.70745 67.3101 5.90421 66.963 5.63094C66.1118 4.97675 64.7648 5.6889 64.0045 4.41364L65.5003 1.60642C66.6573 1.33315 67.9051 4.01616 68.6323 4.32255C70.2934 5.01815 73.1941 2.9148 74.4667 5.59781V5.58953Z" fill="black"/>
<path d="M4.97492 10.4675C4.85922 10.2604 4.727 9.86296 4.76006 9.59797C4.94186 8.14054 8.79288 7.71821 9.64407 7.21308L9.7515 6.64169C8.47885 5.46581 7.37974 4.17399 5.83437 3.94212C5.28069 3.85931 3.02462 3.65229 3.05767 4.73709L3.42955 5.58174C3.45435 6.66654 0.0661119 5.9461 0 4.28164C0.132224 3.32106 4.4047 3.31278 5.1402 3.35418C6.70209 3.44527 9.2474 3.97525 10.6523 5.01036C12.1894 6.14484 16.2801 12.4383 17.4701 12.3804C17.8089 12.3638 19.7013 11.5191 19.379 13.2995C19.1972 14.3015 16.7346 13.5811 16.1726 13.3658C15.6933 13.1753 14.5942 12.2727 14.3793 12.2479C14.0901 12.2147 13.7678 13.1174 13.2968 13.3327C11.6192 14.0945 8.72677 13.3492 7.10703 12.3389C6.66904 12.0657 5.23937 10.9312 4.97492 10.4757V10.4675ZM7.65245 9.07628C6.95828 10.7159 9.18129 11.7924 9.97463 11.958C10.9498 12.165 12.4621 12.4549 13.0406 10.9643L10.7267 8.08257L7.66071 9.07628H7.65245Z" fill="black"/>
</svg>
