<svg width="140" height="24" viewBox="0 0 140 24" fill="none" xmlns="http://www.w3.org/2000/svg">
<path d="M51.8198 4.07991C51.2192 4.28637 50.2343 3.55136 49.8339 4.16249C50.5786 4.73233 53.9097 5.68206 54.1979 6.53269C55.0387 9.00199 50.3784 8.29176 49.5457 7.75495C49.3535 7.98619 50.3464 9.67919 50.5146 9.95998C51.9559 12.3632 53.2851 14.5104 55.8554 14.5352C58.666 14.56 58.9703 14.0645 61.6688 15.7988C63.3263 16.8641 64.9838 18.0616 63.4304 20.7043C62.0371 23.0745 58.4738 23.2727 56.3759 22.8102C54.278 22.3478 53.1249 19.9032 55.0787 18.012C55.343 17.756 55.7433 17.9129 55.6633 17.4092C54.1099 16.2612 52.4443 14.9399 51.2272 13.2469C50.6187 12.3962 50.1863 11.3887 49.6498 10.4637C49.3615 9.9765 48.801 9.45621 48.5848 8.96896C48.2965 8.33305 48.4407 7.87057 48.3045 7.25944C47.0314 6.57398 45.526 6.0537 44.3169 5.21133C44.0366 5.01312 42.8916 4.20379 43.2039 3.69176C45.0856 3.09714 47.1515 3.47704 48.9932 4.14598L48.4487 3.57614C47.9682 2.62641 50.6026 3.32012 50.8669 3.41923C51.1712 3.53484 51.6916 3.69176 51.8278 4.09642L51.8198 4.07991ZM45.55 3.80738C45.4059 3.85693 45.2778 4.01384 45.3018 4.21204C45.4059 5.06267 50.2263 7.40809 51.043 7.4659C51.6356 7.5072 52.5004 7.23467 52.0199 6.31797C51.4594 5.24436 46.5349 3.46878 45.55 3.80738ZM56.2318 18.3672C55.6072 19.2591 56.0316 20.6217 56.7282 21.1916C57.9133 22.1496 62.0051 22.1 62.3494 19.7629C62.7257 17.244 59.8671 17.4752 58.5459 17.5248C57.8413 17.5496 56.7122 17.6734 56.2238 18.3754L56.2318 18.3672Z" fill="black"/>
<path d="M32.8429 3.88927C32.8429 3.88927 32.883 3.55893 33.0911 3.3855C35.069 1.79161 41.4828 4.98766 43.2524 6.75498C45.5265 9.02608 47.8566 14.518 50.4911 15.7816C51.3639 16.2027 53.0854 16.0211 52.9653 17.6149C52.1646 17.3176 47.9527 18.0031 47.5764 17.6397C46.9919 17.0699 48.0168 16.2193 48.0568 16.0045C48.201 15.2695 46.087 13.4031 45.6546 12.858C43.7649 10.4631 42.3716 7.10184 39.9694 5.45014C38.6723 4.55822 36.238 3.64152 34.7647 3.79017C33.0591 3.9636 35.8937 5.76396 36.206 6.06127C38.9605 8.6627 40.8022 13.337 43.845 15.8146C44.5256 16.3679 45.3904 16.5744 46.1351 16.913L46.1591 17.5406L45.9269 17.7884L40.7702 17.8544L40.6901 16.8634L41.8191 16.6322C42.0433 16.4588 41.9953 16.2605 41.9152 16.0045C41.7951 15.6412 40.2577 13.8325 39.8974 13.3866C37.6473 10.62 35.069 5.94565 32.2584 4.48389C31.0973 3.88102 30.0564 4.03793 28.9033 3.50938L31.1213 2.89825C31.4977 2.75786 32.7628 3.94708 32.8429 3.87276V3.88927Z" fill="black"/>
<path d="M38.2959 16.2036L37.9116 15.2869C40.3698 15.8567 39.0566 18.549 37.0308 18.1113C36.2381 17.9379 36.1019 17.1451 35.6695 16.4431C34.5325 18.0535 32.8189 19.0115 31.1854 18.0618C30.1125 17.4424 30.2646 16.5009 29.7441 15.6337C29.0635 14.4858 27.1818 12.8259 26.301 11.5953C25.9487 11.0998 25.6604 10.3235 25.3241 9.828C24.5474 8.70484 22.994 7.65601 23.3062 5.8061L26.5732 5.03806C26.9255 4.493 21.5526 2.40359 20.9841 3.15512L21.6407 4.44345C21.4165 4.64165 18.5739 3.93968 18.7341 2.86607C19.2625 2.75871 19.8311 2.59354 20.3675 2.57702C23.8027 2.43662 28.2948 4.00574 30.737 7.11921C32.939 9.91885 34.3323 12.9167 37.0068 15.3943C37.3831 15.7494 37.7995 16.1953 38.2959 16.2036ZM29.1115 7.38348C28.8393 7.02011 27.374 5.42621 27.0857 5.45099L25.3161 6.23555C24.7796 7.21005 26.8535 9.26643 27.3019 9.91885C28.5911 11.8266 29.3678 13.2553 31.0253 14.8162C32.0022 15.7411 33.0672 16.9386 34.3323 16.1871C34.3964 16.088 34.004 14.5932 33.9079 14.3785C33.3955 13.1975 31.5217 11.3393 30.681 10.0923C30.1445 9.29946 29.6721 8.11849 29.1196 7.37522L29.1115 7.38348Z" fill="black"/>
<path d="M73.4233 5.08797C73.4714 5.04668 73.4874 4.74937 73.6956 4.61723C75.8415 3.20503 82.1673 6.3763 84.1291 7.99497C86.195 9.69623 86.9957 12.0582 88.6212 13.9329C89.8063 15.2955 91.5039 14.544 92.3767 16.4434C91.5039 16.4434 90.6311 16.3113 89.7583 16.3113C88.349 16.3113 87.1799 16.972 86.203 15.1634L86.7635 14.8991C86.8276 14.7835 86.7956 14.4862 86.7715 14.3293C86.6114 13.33 83.2883 8.87038 82.5036 8.1684C81.0943 6.89659 77.491 5.03016 75.7775 5.03016C75.3451 5.03016 74.3522 5.17881 74.8887 5.89731C75.4252 6.6158 77.2508 7.49946 78.1076 8.31705C79.7571 9.88617 80.5498 12.0417 81.9111 13.7264C83.2723 15.4111 84.6816 14.7752 85.8587 16.4022C85.1861 16.5756 84.4895 16.3609 83.8088 16.4022C82.8159 16.4517 80.3657 17.2363 79.9493 15.5846C79.8292 15.1221 80.5098 15.5102 80.5418 14.9074C80.5659 14.5853 80.1575 13.9329 79.9973 13.6438C79.4048 12.5785 78.1476 10.6294 77.443 9.69623C75.5453 7.18564 70.5007 4.20431 67.8662 2.61041C66.9614 2.06535 66.1607 2.1149 65.2078 1.85063C65.1678 1.38815 65.2559 1.56984 65.424 1.48725C65.9205 1.23124 67.2016 0.785277 67.6901 0.93393C68.1065 1.05781 69.6839 2.66822 70.2524 3.08941C70.6128 3.36194 73.2632 5.22836 73.4073 5.10449L73.4233 5.08797Z" fill="black"/>
<path d="M0.492985 0.379892C0.428926 0.371634 -0.0515129 0.189946 0.00453835 0L12.6561 0.429443L15.4907 2.35368C13.9373 2.06463 12.3598 0.949731 10.8144 0.693716C9.87757 0.536804 6.91486 0.346858 6.10612 0.594614C5.96999 0.635907 5.68173 0.578097 5.78582 0.90018C5.88191 1.19749 9.94162 3.60898 10.4221 3.71634C10.8625 3.81544 12.1837 3.86499 12.6721 3.84847C14.7861 3.78241 14.2816 3.30341 12.8002 2.40323C12.7762 2.08941 13.1285 2.24632 13.2647 2.28761C14.0494 2.55188 16.2194 3.90628 16.9961 4.45135C17.5566 4.84776 18.021 5.41759 18.6136 5.73968L18.4134 6.06176C17.8449 5.92136 17.4125 5.30197 16.948 5.02944C16.5236 4.78995 15.3225 4.14578 14.9302 4.12101L10.9025 3.93106C11.6472 4.75691 12.504 5.39282 13.2166 6.28474C14.4578 7.83734 15.4507 9.91849 16.6838 11.4876C17.5806 12.6438 19.3342 14.056 20.0629 15.2535C20.3271 15.6829 20.2791 16.4427 20.6634 16.7813C21.344 17.3842 22.9215 16.6987 23.6822 17.4172L23.5381 18.3835L15.2665 18.5156L15.3145 17.4503C16.2754 17.6154 18.7417 16.7648 17.7327 15.047C17.0201 13.833 15.3065 12.4952 14.4177 11.372C12.8243 9.35691 11.7032 6.59856 9.86155 4.87253C9.10086 4.17881 3.40765 0.520287 2.75105 0.487253C2.04641 0.454219 1.14959 0.512029 0.492985 0.379892Z" fill="black"/>
<path d="M100.032 14.8981C99.7362 14.5017 99.52 14.0062 99.1516 13.7006C99.3038 15.7157 99.7602 16.748 97.7664 16.6076C93.3543 16.3103 91.5847 10.7606 88.4298 8.1261C86.5001 6.51568 84.4262 5.64854 82.1921 5.11173C82.048 5.0787 81.6316 5.03741 81.6716 4.78139C82.8727 4.72358 83.9137 4.28588 85.0668 4.85572C86.3639 5.49988 89.3667 7.4489 90.5438 8.40689C92.2733 9.82735 94.1791 13.106 95.8606 13.8575C99.6881 15.5505 96.9977 10.1494 95.5243 8.77852C94.6755 7.9857 91.6648 6.0532 90.6799 5.68983C89.8711 5.39252 88.9823 5.58247 88.1816 5.08696L90.5438 4.65751C91.4486 4.68229 92.3134 5.64854 93.0981 6.12753C95.2441 7.4489 97.2859 8.34082 99.0075 10.5458C99.6801 11.413 100.537 13.3537 101.418 13.7254C102.138 14.0309 103.043 13.7667 103.347 15.055C102.883 15.3358 102.355 16.4837 101.938 16.5415C101.21 16.6406 100.473 15.4762 100.04 14.9063L100.032 14.8981Z" fill="black"/>
<path d="M117.32 16.0057L112.323 16.0966L111.546 15.1055L112.411 14.5935C112.499 14.2962 112.211 13.875 112.091 13.619C110.369 10.1091 107.07 7.64808 104.003 6.43408C102.866 5.97986 101.633 5.69081 100.448 6.03767C100.432 6.32672 100.512 6.56621 100.664 6.77268C101.193 7.47465 103.163 8.30876 103.995 9.00248C105.621 10.3569 107.422 14.0402 108.704 14.6431C109.496 15.0229 110.273 14.866 110.802 15.9644L105.949 16.1461L104.892 15.1386L105.845 14.5605L105.861 14.0154C104.5 11.9343 103.323 9.77052 101.441 8.37483C99.5593 6.97914 98.0619 6.4093 96.0281 5.94682C95.8679 5.91379 95.2674 5.68255 95.2354 5.41828C95.7879 5.3935 96.6847 4.76585 97.1651 4.78237C97.7977 4.79889 98.5984 5.64126 99.175 5.96334C99.207 4.74108 100.536 4.72456 101.281 4.79063C104.204 5.0549 110.361 8.51523 112.419 11.1745C113.34 12.3637 113.94 14.1228 115.27 14.6926C116.038 15.0229 116.919 14.8082 117.312 15.9892L117.32 16.0057Z" fill="black"/>
<path d="M70.1328 6.38394C67.4744 6.45001 65.2964 3.69992 62.5579 4.59184C62.2616 5.10387 63.5107 6.04534 63.807 6.30136C65.0642 7.36671 66.7457 8.27515 67.9308 9.37353C68.7636 10.1416 69.4522 11.4134 70.325 12.231C71.3019 13.1394 73.0715 14.403 74.2165 13.3046C74.5528 11.7107 73.3117 10.8188 73.2717 9.32398C74.5048 9.101 75.0093 11.4795 75.7459 12.4292C75.9301 13.6019 77.6677 15.6418 76.7869 16.6906C75.6018 18.1111 71.43 15.6252 70.2289 14.7333C67.8107 12.9495 67.1941 11.24 65.3364 9.13403C64.5357 8.2256 61.1966 5.68197 60.9084 4.86437C60.7482 4.35235 61.3808 4.10459 61.6931 4.04678C63.783 3.67515 67.8587 4.64965 69.7244 5.91321C69.8846 6.02057 70.1088 6.11141 70.1328 6.37568V6.38394Z" fill="black"/>
<path d="M138.739 14.65C138.827 14.5839 138.851 14.0636 139.116 14.1792C139.572 14.4352 140.148 15.1868 139.972 15.8722C139.636 17.1688 136.553 15.5666 136.153 14.5591C136.001 17.2762 133.55 16.5494 132.173 15.7649C131.1 15.1455 128.754 12.6101 128.466 11.1896C128.178 9.76916 129.843 9.72787 130.636 9.26539C130.684 9.01763 130.636 8.96808 130.508 8.81943C130.299 8.56342 127.865 7.1925 127.401 6.953C126.384 6.42446 125.159 5.77203 124.038 5.88765C122.54 6.04456 124.742 7.53936 125.023 8.01009C124.286 8.52212 120.939 6.68873 121.163 5.68945C121.7 5.09483 122.973 4.93792 123.653 4.97096C126.696 5.12787 134.455 9.57921 136.601 12.3293C136.978 12.8166 138.067 15.1289 138.747 14.65H138.739ZM134.287 11.8503C133.927 11.3713 132.662 10.0169 132.197 9.90956C131.861 9.82697 130.524 10.5289 130.436 10.9914C130.804 12.6184 133.166 15.4263 134.567 14.46C135.496 13.8158 134.728 12.4449 134.287 11.8586V11.8503Z" fill="black"/>
<path d="M120.867 14.618C121.099 14.9731 121.267 15.4686 121.5 15.8485C122.388 17.2442 123.55 18.2104 123.798 20.1842C123.405 21.39 121.772 21.5386 120.971 21.0762C120.699 20.9192 119.578 19.1106 119.754 18.8216C119.914 18.8051 120.058 18.7142 120.226 18.7225C120.603 18.7472 122.268 19.6722 122.156 18.8463C121.788 18.3674 121.468 17.8223 121.083 17.3516C117.304 12.6442 115.798 8.90308 110.337 6.59069C110.081 6.48333 107.511 6.14473 107.823 5.66574C109.833 4.34437 110.361 5.48405 112.011 6.52462C116.439 9.32427 117.608 9.67938 120.859 14.618H120.867Z" fill="black"/>
<path d="M125.183 16.0211C125.111 16.0211 124.959 16.2028 124.655 16.145C124.182 16.0624 123.862 15.6082 123.742 15.0549C124.062 15.0136 124.983 15.1127 124.823 14.386C124.727 13.94 123.317 11.8506 122.973 11.4211C120.915 8.83622 117.544 7.13497 114.774 6.42473C112.924 5.94574 114.878 5.28506 115.582 4.97949L123.285 9.86028C125.055 10.9174 126.088 14.3364 127.865 14.9641C128.618 15.2283 129.179 14.931 129.643 15.9716C129.659 16.0211 129.299 16.2276 129.283 16.2193C127.914 16.1533 126.552 16.079 125.183 16.0211Z" fill="black"/>
<path d="M113.869 3.60946C113.052 3.86547 110.049 2.53585 110.442 1.231C110.858 -0.172949 114.277 1.99904 113.869 3.60946Z" fill="black"/>
<path d="M104.436 1.03203C105.316 0.693434 106.966 1.82485 107.462 2.75807C108.407 4.52539 105.389 3.17099 104.828 2.74155C104.388 2.40295 103.635 1.3376 104.436 1.03203Z" fill="black"/>
</svg>
