<svg width="77" height="28" viewBox="0 0 77 28" fill="none" xmlns="http://www.w3.org/2000/svg">
<path d="M58.216 11.7354C58.595 12.0401 59.0893 12.3119 59.3612 12.6825C61.0501 14.9555 59.6413 21.3543 60.1686 24.2532C60.7288 25.7026 64.3621 24.6238 64.0243 26.7403L56.733 26.5838L56.8483 25.5709L57.8864 25.2167C56.8813 22.1944 57.7793 18.7684 57.4992 15.6884C57.2685 13.2178 54.904 12.0978 52.902 13.4566C50.3233 15.2025 51.8474 20.5555 51.2542 23.2732C51.3119 23.8003 52.7125 24.7803 53.2233 25.0356C54.146 25.505 55.423 25.0767 55.1512 26.3862C54.9122 26.6168 49.4417 26.4932 48.6096 26.4356C48.3789 26.4191 47.9835 26.592 47.9176 26.1391C47.7281 24.9038 49.5983 25.5132 50.1008 24.7556L48.692 23.2567C48.3789 21.0249 49.4829 14.8566 47.8269 13.3907C46.3439 12.0731 43.4522 13.0613 42.8754 14.8896C42.5953 15.7708 42.5706 16.9978 42.5212 17.9449C42.4635 19.032 42.4305 21.1238 42.4965 22.1696C42.5788 23.4544 43.1308 23.0755 43.7899 23.7591C44.5397 24.5332 44.4655 25.3485 46.1297 25.4473L46.3192 26.3944L39.0279 26.2379L39.1268 25.2003L41.1865 24.805C41.9857 23.265 40.0495 23.125 39.8848 22.4249L39.9177 14.0084C39.753 13.3002 38.5419 13.1272 37.9404 13.1107C38.0063 12.806 37.8992 12.3201 38.0558 12.0978C38.2041 11.8919 42.2411 10.706 42.8013 10.9119L42.7683 13.0366C45.2317 10.3272 49.3017 9.65188 51.073 13.5554C53.0503 12.0072 54.9287 9.35541 57.7299 11.0601C58.0677 11.266 58.0842 11.6284 58.216 11.7354Z" fill="black"/>
<path d="M0.626592 0.469747C2.66156 1.91094 5.35563 2.94036 6.82213 5.15568C8.198 7.23923 7.83549 9.77572 7.75311 12.1228L9.92813 10.8546C13.2566 9.29807 16.6345 10.4593 16.8899 14.5111C16.9887 16.1005 16.5274 18.777 16.8322 20.2346C16.964 20.8688 18.0186 21.1405 18.2822 21.9476C18.826 23.6276 17.7385 25.0359 20.8527 25.0441L20.7538 26.3618L13.4626 26.2053C13.0341 24.6653 15.2174 24.8218 15.5305 24.2123C15.7941 23.7017 15.72 22.1206 15.5799 21.5523C15.3739 20.7452 14.4512 20.5888 14.2535 19.9794C13.6768 18.1923 14.6407 16.0181 13.8251 13.9346C12.7458 11.1593 9.2196 11.851 8.05794 14.0746C7.62953 14.8981 7.52242 18.7111 7.83549 19.5676C8.06618 20.1852 9.03011 20.2594 9.18665 20.6876C9.5162 21.61 8.93125 24.1712 9.73041 24.7229C10.1094 24.9865 11.9302 24.8547 11.4029 25.8759C11.0568 26.5429 8.42868 25.9418 7.62129 25.9253C7.01986 25.9171 4.21045 26.3371 4.11982 25.7194C4.07039 24.4265 5.31444 25.1923 6.04769 24.5912C6.78093 23.99 6.78093 21.5935 6.52553 20.7041C6.17127 19.4852 5.11671 20.0535 5.03432 17.5334C4.96841 15.2605 5.88291 6.65451 4.2434 5.38627C3.65845 4.93332 2.99111 5.1145 2.32377 4.81803C0.997335 4.23331 -0.732801 1.44152 0.329997 0.00856647C0.741934 -0.0655519 0.478294 0.362688 0.626592 0.469747Z" fill="black"/>
<path d="M31.0275 26.3868C30.9616 26.4033 31.011 26.6915 30.5084 26.7739C29.9482 26.8645 27.9709 26.6504 27.4601 26.461C27.2953 26.4033 24.9885 24.6492 24.7001 24.3445C23.9586 23.5703 23.7032 22.5327 23.1595 21.9644C22.7063 21.495 21.5612 21.1821 21.3305 20.5809C21.0668 19.8891 21.108 17.5173 21.2316 16.7185C22.6404 7.75018 35.2128 8.81255 35.221 18.0279C35.221 19.2715 34.5701 21.1656 34.6443 21.9644C34.7184 22.7468 35.6741 22.7386 35.5753 23.3397C34.5866 25.2833 32.9471 25.8351 31.0357 26.3868H31.0275ZM31.8349 22.055C31.5465 21.4456 32.2633 19.4774 32.3045 18.5797C32.4281 15.9609 31.2664 11.5138 28.0203 11.6702C24.7743 11.8267 24.1646 16.4056 24.1976 18.8679C24.2305 21.6021 24.6672 20.8197 26.043 22.2197C27.0811 23.2821 27.4024 25.0774 29.3138 25.3492C30.426 25.5057 31.8019 24.7892 32.3869 23.8586C33.3178 22.3762 32.0491 22.508 31.8349 22.0633V22.055Z" fill="black"/>
<path d="M75.6655 13.0367C76.6129 14.0991 76.9342 15.9273 77.0002 17.3191L67.0725 17.3356C66.5122 22.3262 70.5163 26.0074 74.9899 22.8203C75.5419 22.425 75.682 21.4944 76.6541 21.8074C76.7777 23.8909 74.5533 24.9698 74.405 26.8639C73.6058 28.0004 67.0807 25.7521 66.0097 24.6486C65.0787 23.6851 64.3372 20.2591 64.3619 18.9085C64.4031 16.8415 67.1466 11.0108 69.1404 10.5826C70.9859 10.1873 74.3885 11.612 75.6572 13.0285L75.6655 13.0367ZM72.5595 12.7567C70.0137 10.8214 67.9952 13.9261 67.4432 16.1662C68.6543 15.6556 73.3174 16.5532 73.7376 15.2438C73.9353 14.6344 73.0291 13.1191 72.5595 12.7567Z" fill="black"/>
</svg>
