<svg width="104" height="29" viewBox="0 0 104 29" fill="none" xmlns="http://www.w3.org/2000/svg">
<path d="M12.3914 26.208C12.4541 26.9818 12.7127 27.4461 13.5356 27.6009C14.3036 27.7479 16.1452 27.2449 15.6358 28.5372L7.93227 28.9628L8.09684 28.0033C8.82567 27.8562 9.75041 28.0033 9.99335 27.1134C9.70339 24.3663 10.7614 19.6227 9.24102 17.309C7.72068 14.9952 1.44341 13.8113 1.04373 10.8398C0.934016 10.004 1.54529 7.65159 1.00455 7.20277C0.51083 6.79264 -0.539301 7.20277 0.33842 5.50809C0.855648 4.50211 3.90416 3.85983 5.00131 3.80566L4.64866 5.70154C6.18467 4.12293 8.62191 3.25625 10.6516 4.26996C12.3287 5.1057 11.6391 6.13489 11.8585 7.64385C12.219 10.0582 12.4854 11.6291 14.5309 13.1071C16.9211 14.8327 22.3128 15.8542 21.0275 19.8781C19.8207 23.6466 15.7847 24.9389 12.4149 23.3758C12.4619 24.2966 12.3287 25.2949 12.3992 26.208H12.3914ZM13.1594 22.099C15.8631 24.8228 19.7031 20.8841 18.5041 17.7501C17.5559 15.2583 12.1014 13.997 10.2441 11.6755C9.20183 10.3755 9.08428 6.08072 7.09373 5.9956C5.73013 5.94143 3.4653 8.72721 3.41044 10.1124C3.26154 14.0357 10.4714 14.7244 11.8742 17.6804C12.5717 19.1507 12.0231 20.9537 13.1516 22.0912L13.1594 22.099Z" fill="black"/>
<path d="M35.6513 5.96455C37.6027 7.75209 37.7986 9.98845 39.5148 11.4819C41.0665 12.8439 42.869 13.4475 44.5931 14.4921C46.6072 15.7148 48.3704 16.713 46.999 19.4292C44.9614 23.4686 38.6293 23.9406 36.2939 20.2339C34.2955 17.0535 35.2046 16.6976 31.5213 14.5231C29.2486 13.1766 25.2989 12.1165 27.5324 8.69616C28.8568 6.66873 32.7595 3.99128 35.1419 5.36096C35.4397 5.5312 35.4632 5.7943 35.6435 5.95681L35.6513 5.96455ZM34.4523 7.70566C34.2642 7.50446 34.225 7.29553 33.9429 7.11755C32.0777 5.95681 29.233 8.93605 29.6326 10.8397C30.1107 13.107 35.1498 14.5076 36.8268 16.1172C38.6293 17.8506 38.5509 22.2769 42.0461 21.6268C43.5351 21.3483 44.8674 19.2048 44.7655 17.75C44.5539 14.6392 37.5792 13.3314 35.8002 10.3367C35.1811 9.29201 35.4084 8.71938 34.4523 7.70566Z" fill="black"/>
<path d="M58.2602 7.62821C58.8402 8.25501 59.1615 9.51636 59.8511 10.3598C60.4545 11.095 61.2931 11.5593 61.8887 12.2867L53.5973 12.3021L53.3387 12.6504C54.9296 13.4242 57.0377 14.3218 58.4405 15.382C59.6709 16.3183 61.2304 18.8333 62.5626 19.1892C63.9733 19.5684 65.4152 19.3285 66.5516 18.3535C67.1237 17.866 67.586 16.6588 68.2521 17.1308C68.7694 17.4094 68.354 18.1213 68.1581 18.5547C66.5594 22.0679 61.2461 22.803 58.8715 19.8934C56.8731 17.4326 57.8527 16.5737 54.5142 14.4456C52.4375 13.1224 47.9 11.8146 50.3921 8.61871C52.1711 6.33592 56.1992 5.39185 58.2759 7.62047L58.2602 7.62821ZM57.1082 11.0253C56.9358 9.16813 55.9249 6.9395 53.66 7.88358C53.3544 8.01513 52.2337 8.88182 52.1084 9.12944C51.8576 9.62469 51.5284 11.0718 52.2651 11.2807C53.3936 11.5902 55.8465 10.8087 57.1082 11.0331V11.0253Z" fill="black"/>
<path d="M19.5071 7.93813C20.7218 6.58393 22.4459 4.44816 24.4364 4.44042C26.4113 4.44042 25.5335 7.88396 24.7264 8.85125C23.159 10.7162 22.7672 8.27088 22.0775 7.96908C20.5885 7.31907 18.6842 9.98104 19.9146 11.7144C21.7719 14.3377 27.5241 14.9258 28.0962 18.3771C28.3783 20.064 27.4536 21.6039 29.6479 21.9135C30.3767 22.0141 31.9832 21.6426 31.3955 22.8653L23.5979 23.1284L23.7076 22.2694C26.0743 22.5403 25.9646 20.6986 25.7687 18.8646C25.3376 14.7943 19.2249 14.446 17.3519 11.5829C16.5839 10.4144 17.2265 9.20721 16.8425 8.34826C16.4585 7.48931 14.9539 8.30957 15.4946 6.83929C15.8159 5.96487 17.2814 5.43092 18.1043 5.09818C22.4459 3.33385 20.1183 5.30711 19.4992 7.94587L19.5071 7.93813Z" fill="black"/>
<path d="M74.2003 11.6605C72.68 11.8384 71.3869 11.0491 70.4544 9.94256C70.1409 9.57112 69.7255 8.65026 69.4199 8.43359C67.7977 7.28833 64.3573 9.09908 65.8306 11.3819C66.5751 12.5271 70.9402 14.276 72.3587 15.3361C73.9574 16.5356 74.9762 18.6404 77.2489 18.7255C78.0952 18.7565 79.5372 18.2303 80.1485 17.6035C80.4071 17.3404 80.7754 16.4118 80.8851 16.3499C81.7158 15.8546 81.9117 17.1082 81.614 17.8356C80.0779 21.5732 74.5138 22.0917 72.1471 18.9731C70.6895 17.0463 70.9559 16.0868 68.6441 14.5314C67.3667 13.6724 63.2132 12.0396 63.3621 10.3449C63.652 7.16451 69.1613 5.90317 71.5045 7.68298C71.8728 7.96156 73.5812 10.2753 73.8477 10.7473C74.0044 11.0337 74.0671 11.3664 74.2082 11.6527L74.2003 11.6605Z" fill="black"/>
<path d="M80.5714 3.96858C80.1404 5.1448 79.4508 6.30554 79.5213 7.59783L83.6905 7.69843C84.098 7.82224 84.2156 9.26156 83.5259 9.40085C82.9147 9.52467 79.5448 9.0062 79.3489 9.15323C80.5088 12.8134 85.9632 12.9527 87.7186 16.048C88.4945 17.41 88.5023 19.2362 90.7593 18.5862C91.6057 18.3386 92.2796 16.9534 92.7263 17.0772C93.5414 17.3094 92.3893 19.1434 91.9818 19.4993C90.6417 20.6833 87.9772 20.7761 86.6998 19.5535C85.7829 18.6713 85.8378 17.1546 85.2422 16.0093C83.667 12.9837 77.8442 12.7206 76.7863 9.1068L75.07 8.89787C75.0543 8.60381 75.0387 8.32523 75.1641 8.03892C75.3051 7.70617 78.6122 4.92813 79.1452 4.54121C79.5918 4.2162 79.9915 3.8912 80.5714 3.96858Z" fill="black"/>
<path d="M96.5978 11.1416C94.7091 10.9791 90.8221 7.0713 89.0118 9.26897C87.9146 10.6077 91.3471 11.5905 92.1857 11.8071C94.9677 12.5113 101.645 12.9447 103.408 15.1965C105.359 17.6882 102.06 19.793 99.7012 20.002C98.9958 20.0639 96.4959 19.7157 95.9708 19.3829C95.2499 18.9264 95.2263 16.8912 94.5916 16.1793L94.7718 15.6608C96.0414 16.0245 96.5978 17.5722 97.6244 18.2144C100.9 20.2651 104.591 16.6281 99.5679 15.0263C97.1307 14.2524 94.5837 13.9352 92.0995 13.0994C90.5008 12.5577 84.3645 10.5458 87.9068 8.18561C89.3096 7.24928 92.8753 7.3344 94.2154 8.20883C94.7797 8.57253 94.6778 9.06778 94.9912 9.46243C95.4615 10.066 96.1746 10.4916 96.5978 11.1494V11.1416Z" fill="black"/>
<path d="M45.8465 5.96466C45.6036 7.47362 44.8278 9.19926 45.5017 10.6695C46.6302 13.1226 52.1081 14.0976 53.5188 16.481C55.141 19.2203 53.8871 26.68 50.0784 27.3146C48.7462 27.539 47.2023 26.6104 48.1271 25.2175C49.1615 23.6544 51.4107 26.8271 51.732 23.7705C51.8966 22.2151 51.9357 17.8894 51.2148 16.6203C49.859 14.2137 44.6083 13.2386 43.182 10.8243C42.8999 10.3523 42.8215 9.29986 42.4924 8.96711C42.077 8.54151 40.5645 8.87425 41.1288 7.79089C41.3325 7.39624 45.5879 5.74025 45.8465 5.9724V5.96466Z" fill="black"/>
<path d="M46.6697 2.79984C44.7575 5.00526 41.9362 1.08194 44.8829 0.0914427C46.4973 -0.450238 47.7668 1.5385 46.6697 2.79984Z" fill="black"/>
</svg>
