<svg width="260" height="49" viewBox="0 0 260 49" fill="none" xmlns="http://www.w3.org/2000/svg">
<g clip-path="url(#clip0_2642_4855)">
<path d="M199.17 30.9003C198.56 30.9003 198.21 31.9503 197.68 31.9903C196.9 32.0503 185.07 23.0403 183.21 21.6403C179.4 18.7703 175.49 14.3103 171.64 12.1003C163.97 7.71032 154.64 7.07032 146.71 8.68032C145.6 10.9303 151.89 14.5103 152.84 14.7103C153.98 14.9503 155.27 14.5603 156.43 14.7103C155.91 12.3903 153.92 12.5303 154.32 9.44032H160.87C161.8 9.44032 165.95 11.8703 167.11 12.6403C168.95 13.8603 170.56 16.1503 172.49 17.0003C172.62 18.8003 172.49 18.2003 171.91 18.5803C170.62 19.4203 163.57 20.6103 163.2 21.5203C163.03 22.8703 163.42 23.0103 163.9 23.6603C167.62 28.7503 181.87 36.5603 186.48 34.7703C187.92 34.2103 188.51 32.5503 189.58 31.2903C192.52 33.1703 195.65 37.5803 198.92 37.4203C203.01 37.2103 202.19 30.9103 199.16 30.9203L199.17 30.9003ZM184.76 29.4203C182.8 32.8503 172.11 26.9903 169.97 23.3803C169.97 21.5703 175.08 20.9003 176.11 20.3303C177.2 21.6503 184.9 26.0903 185.17 26.8203C185.42 27.5003 185.15 28.7603 184.77 29.4303L184.76 29.4203Z" fill="#5EFF00"/>
<path d="M256.43 36.5899C255.89 37.4499 255.7 39.6399 254.64 40.1899C249.64 42.8099 244.75 31.8599 240.43 28.1399C235.59 23.9599 227.51 20.3899 223.23 15.0799C223.02 14.8199 222.52 13.9899 223.02 13.9399L233.8 14.6899C233.34 13.2299 231.43 11.9499 230.6 11.7299C227.16 10.8099 222.41 11.7299 218.83 10.8599C217.15 10.4499 209.41 4.13992 208.44 5.64992L208.83 11.2999C210.87 13.5199 213.53 12.5899 215.64 13.5299C218.61 14.8499 235.2 28.2299 237.75 31.4099C243.48 38.5599 248.98 54.9699 257.44 45.1699C260.93 41.1299 258.29 33.6399 256.43 36.5799V36.5899Z" fill="#5EFF00"/>
<path d="M220.16 35.6598C217.7 34.1798 215.52 30.5698 213.18 28.4998C210.16 25.8398 206.6 24.1298 203.5 21.6198C202.51 20.8198 194.27 14.6098 198.5 13.1898C201.15 12.2998 206.11 16.8198 208.64 16.2498C209.17 16.1298 209.38 15.7798 209.69 15.0798C209.67 12.4798 200.08 9.49981 198.52 9.38981C196.6 9.25981 193.52 8.64981 193.63 13.1998C189.45 8.42981 186.39 8.36981 181.7 10.3998C181.28 10.5798 180.43 10.6198 180.53 11.6798C183.15 12.4198 185.53 12.2798 188.12 13.6098C191.78 15.4798 204.12 25.2198 207.6 28.6498C208.84 29.8798 210.03 31.2398 210.97 33.1898C209.9 35.3098 208.17 34.6098 206.75 35.0798C207.14 38.4998 209.54 38.3698 211.21 38.7498C216.87 40.0098 222.69 39.7298 228.31 41.8598C227.87 35.7398 223.06 37.4098 220.16 35.6598Z" fill="#5EFF00"/>
<path d="M37.1101 4.34969C32.5901 5.55969 35.6401 8.44969 37.9201 10.7997C46.4501 19.5997 66.1801 27.0197 75.8901 25.2497C81.3101 24.2597 79.0801 20.2897 75.9701 16.8397C68.2301 8.25969 46.0101 1.96969 37.1201 4.34969H37.1101ZM44.3901 10.5697C43.3501 9.45969 41.4801 8.07969 41.4401 5.65969C42.0801 4.36969 51.0301 6.05969 52.5901 6.49969C58.0401 8.01969 64.2001 11.4097 68.8801 16.6497C70.2501 18.1797 72.2201 19.8097 72.3001 22.9897C63.4501 25.0597 52.0401 18.7397 44.3901 10.5697Z" fill="#5EFF00"/>
<path d="M118.04 17.2002C114.4 15.8202 94.9601 12.2902 93.8701 8.28019C93.6901 6.95019 94.1501 7.07019 94.7001 6.78019C96.7501 5.71019 104.53 8.02019 107.07 8.87019C109.31 9.62019 111.47 11.3602 113.72 12.1002C114.16 12.2502 115.1 13.1002 115.01 11.6902C106.55 6.40019 97.3001 4.31019 88.3801 6.41019C87.1501 9.35019 101.71 16.4102 102.66 16.7502C108.22 18.7802 114.22 19.0202 119.75 20.9502C120.29 21.1402 128.29 24.4402 126.85 26.7602C119.08 27.7602 111.53 23.5702 104.02 20.7402C103.92 21.7902 104.73 21.7702 105.17 22.0502C110.13 25.2702 115.46 27.3402 120.72 28.2602C122.69 28.6102 125.52 29.0002 127.48 29.0702C128.09 29.0902 133.22 28.9502 132.14 25.9802C131.07 23.0302 120.41 18.0902 118.04 17.1902V17.2002Z" fill="#5EFF00"/>
<path d="M159.48 26.1904C159.28 26.4204 159.27 27.8204 158.71 28.1704C153.48 31.4304 134.38 15.4704 129.08 10.3304C128.69 9.95042 128.15 9.61042 128.11 8.68042L135.07 9.46042L139.1 8.68042C134.33 6.21042 128.84 8.22042 124.13 7.10042C122.3 6.67042 114.88 1.16042 113.74 2.65042C113.97 11.3104 118.64 7.64042 122.12 9.19042C126.85 11.3004 133.06 18.9604 137.97 22.3904C143.49 26.2404 156.51 33.6804 162.05 31.8704C166.93 30.2704 160.93 24.5804 159.49 26.1904H159.48Z" fill="#5EFF00"/>
<path d="M44 19.5701C41.48 18.1301 41.75 20.2601 41.11 20.6801C35.31 24.4701 24.95 12.9501 19.45 9.06006C17.78 7.88006 15.42 7.47006 13.95 6.04006C11.92 4.06006 17.28 5.67006 17.53 5.69006C19.57 5.82006 21.64 5.54006 23.68 5.65006C23.8 4.88006 21.96 4.18006 21.78 4.15006C18.6 3.52006 14.88 4.61006 11.63 4.15006C7.81 3.60006 4.08 -0.549938 0.38 0.0600617L0 4.14006C3.79 4.75006 6.81 5.03006 10.48 6.94006C16.41 10.0301 21.52 16.6301 27.39 19.7701C33.1 22.8301 39.33 23.9901 45.25 22.6301C46.2 21.7001 44.43 19.8101 44 19.5701Z" fill="#5EFF00"/>
</g>
<defs>
<clipPath id="clip0_2642_4855">
<rect width="259.15" height="48.23" fill="white"/>
</clipPath>
</defs>
</svg>
